<svg width="249" height="196" viewBox="0 0 249 196" fill="none" xmlns="http://www.w3.org/2000/svg">
<g clip-path="url(#clip0_180_2023)">
<path d="M68.9382 191.679L73.3849 191.175L73.5546 173.826L66.9919 174.569L68.9382 191.679Z" fill="#FFB8B8"/>
<path d="M82.4286 194.324L68.4539 195.906L67.8412 190.519L76.4166 189.548C77.8486 189.386 79.2865 189.798 80.414 190.694C81.5414 191.589 82.2661 192.895 82.4286 194.324Z" fill="#2F2E41"/>
<path d="M23.2086 191.401H27.6837L29.8125 174.182L23.2079 174.182L23.2086 191.401Z" fill="#FFB8B8"/>
<path d="M36.3143 195.547L22.2499 195.547L22.2496 190.126L30.8801 190.126C32.3213 190.126 33.7034 190.697 34.7226 191.713C35.7417 192.73 36.3143 194.109 36.3143 195.547Z" fill="#2F2E41"/>
<path d="M55.3162 114.397L57.8713 122.689L71.742 152.632L75.3922 181.035L66.9968 181.399L61.8865 155.181L44.3656 136.246L29.0348 185.769L22.0995 185.041C22.0995 185.041 27.9398 120.952 35.9702 114.397C35.9702 114.397 49.1109 108.207 55.3162 114.397Z" fill="#2F2E41"/>
<path d="M43.982 78.6217C48.9333 78.6217 52.9472 74.6175 52.9472 69.678C52.9472 64.7385 48.9333 60.7343 43.982 60.7343C39.0306 60.7343 35.0167 64.7385 35.0167 69.678C35.0167 74.6175 39.0306 78.6217 43.982 78.6217Z" fill="#FFB8B8"/>
<path d="M56.2288 116.036C56.2288 116.036 57.3239 78.8934 41.9931 81.4424C26.6623 83.9914 33.0501 119.859 33.0501 119.859C33.0501 119.859 36.3353 126.414 44.3657 119.131C52.3961 111.848 56.2288 116.036 56.2288 116.036Z" fill="#CCCCCC"/>
<path opacity="0.2" d="M35.0579 97.1007L38.6653 110.896L44.1614 116.379L36.5179 113.851L35.0579 97.1007Z" fill="black"/>
<path d="M56.342 131.744C55.8376 131.562 55.3793 131.271 54.9996 130.893C54.6199 130.515 54.3279 130.058 54.1443 129.555C53.9606 129.052 53.8898 128.515 53.9367 127.982C53.9836 127.449 54.1472 126.932 54.4158 126.469L45.8894 116.621L52.611 115.748L59.6773 125.233C60.4278 125.735 60.9676 126.494 61.1945 127.367C61.4214 128.239 61.3197 129.164 60.9086 129.967C60.4975 130.769 59.8055 131.394 58.9639 131.721C58.1222 132.049 57.1894 132.057 56.342 131.744Z" fill="#FFB8B8"/>
<path d="M45.9608 89.0077L46.9208 107.843L58.2364 122.408L53.4911 126.05L38.1603 110.756C38.1603 110.756 32.685 92.1846 36.7002 86.7225C38.206 84.6742 39.8656 84.1109 41.3521 84.2069C42.5751 84.3085 43.7187 84.8526 44.5675 85.7369C45.4164 86.6211 45.9119 87.7844 45.9608 89.0077Z" fill="#CCCCCC"/>
<path d="M42.9157 79.0755C42.9586 79.0372 42.9918 78.9895 43.0129 78.9362C43.034 78.8828 43.0424 78.8253 43.0373 78.7681C43.0323 78.711 43.0139 78.6558 42.9837 78.607C42.9535 78.5582 42.9124 78.517 42.8635 78.4868C42.0674 77.995 41.4187 77.2983 40.9857 76.47C40.5527 75.6417 40.3513 74.7123 40.4027 73.7796C40.4541 72.8468 40.7564 71.945 41.2778 71.169C41.7991 70.3931 42.5204 69.7715 43.3658 69.3696C46.0016 68.1159 49.5733 69.0913 51.5218 66.6821C51.9181 66.1667 52.1983 65.5721 52.3433 64.9388C52.4884 64.3056 52.4949 63.6486 52.3623 63.0126C51.9419 60.7372 50.2272 59.0473 48.3069 57.8893C45.9479 56.4667 43.2367 55.7316 40.4804 55.7674C37.7242 55.8031 35.033 56.6083 32.712 58.0916C30.3909 59.575 28.5327 61.6772 27.3478 64.1601C26.163 66.6429 25.6989 69.4073 26.0082 72.1398C26.2561 74.3298 26.9334 76.7854 25.6281 78.5635C24.4793 80.1284 22.3108 80.4218 20.4059 80.8106C16.3202 81.6446 12.3785 83.5686 9.60587 86.6763C6.83324 89.784 5.35411 94.1442 6.19007 98.2201C7.02603 102.296 10.3798 105.878 14.5018 106.51C17.8569 107.024 21.3213 105.603 23.7851 103.273C26.2489 100.944 27.8063 97.7982 28.7886 94.5568C29.9545 90.7094 30.4145 86.5637 32.5194 83.1366C34.5793 79.7829 39.0182 77.3789 42.4972 79.1255C42.5639 79.1602 42.6395 79.174 42.7142 79.1651C42.7889 79.1562 42.8592 79.125 42.9157 79.0755Z" fill="#2F2E41"/>
<path d="M112.426 196H0.365019C0.26821 196 0.17536 195.962 0.106906 195.893C0.0384514 195.825 0 195.732 0 195.636C0 195.539 0.0384514 195.447 0.106906 195.378C0.17536 195.31 0.26821 195.272 0.365019 195.272H112.426C112.523 195.272 112.615 195.31 112.684 195.378C112.752 195.447 112.791 195.539 112.791 195.636C112.791 195.732 112.752 195.825 112.684 195.893C112.615 195.962 112.523 196 112.426 196Z" fill="#3F3D56"/>
<path d="M225.629 72.02C225.609 82.3348 221.721 92.2689 214.731 99.8693C207.741 107.47 198.154 112.187 187.854 113.093C177.554 113.999 167.287 111.029 159.072 104.766C150.856 98.5037 145.286 89.4017 143.456 79.2497C141.626 69.0977 143.67 58.6301 149.184 49.9048C154.698 41.1794 163.285 34.8276 173.256 32.0979C183.227 29.3683 193.861 30.4583 203.067 35.1537C212.274 39.8491 219.386 47.8102 223.007 57.472C223.097 57.7146 223.185 57.9572 223.271 58.2021V58.2044C223.653 59.2812 223.99 60.378 224.281 61.4948C225.179 64.9314 225.632 68.4686 225.629 72.02Z" fill="#3F3D56"/>
<path d="M179.375 43.9583C177.501 42.9475 175.421 42.3769 173.293 42.29C171.165 42.2032 169.045 42.6023 167.094 43.457C165.377 44.2025 163.569 45.5398 162.997 47.9547C165.313 46.5908 168.312 48.7458 168.908 52.2028L168.769 52.2411C168.454 54.6356 169.157 57.2426 170.518 58.7274C170.619 58.0574 170.869 57.4184 171.248 56.8566C171.628 56.2949 172.128 55.8245 172.713 55.4798C173.713 54.8241 174.819 54.3478 175.582 53.2208C176.487 51.8847 176.716 49.932 177.076 48.1506C177.435 46.3693 178.117 44.4546 179.375 43.9583Z" fill="#EB8D00"/>
<path d="M166.407 64.3347C165.765 65.2959 164.908 65.899 164.14 66.65C163.252 67.4556 162.669 68.5417 162.49 69.7255C162.393 70.562 162.544 71.4123 162.523 72.258C162.502 73.1037 162.219 74.0557 161.643 74.266C160.732 74.5941 160.037 72.9073 159.102 72.7894C158.358 72.697 157.689 73.8639 157.904 74.876C158.12 75.8881 159.132 76.3363 159.713 75.6755C160.239 76.5558 159.868 78.1526 159.078 78.4229C158.995 78.9774 158.912 79.5297 158.831 80.0842C156.834 78.6909 154.817 77.2745 153.119 75.2341C151.231 72.9842 150.059 70.2226 149.756 67.3039C149.536 64.9585 149.862 62.2758 148.783 60.4712C147.919 59.027 146.436 58.7082 145.102 58.7983C144.859 58.8144 144.614 58.8422 144.37 58.8722C145.157 56.5147 146.156 54.2332 147.356 52.0557C147.627 51.9394 147.88 51.7828 148.104 51.5912C149.346 50.5399 149.897 48.4117 150.904 46.9398C150.969 46.8451 151.036 46.7527 151.106 46.6625C152.137 45.32 153.517 44.6291 154.851 43.9868C157.805 42.5565 160.843 41.1077 163.961 41.3064L163.074 41.3919C162.039 44.2848 161.002 47.1778 159.966 50.0708C159.808 50.5144 159.649 50.9589 159.488 51.4041C158.9 53.0493 158.293 54.8008 158.384 56.6424C158.437 57.733 158.817 58.8976 159.539 59.2719C160.213 59.6186 160.95 59.1934 161.601 58.7728C161.876 58.5972 162.15 58.4216 162.425 58.2437C163.414 57.6082 164.51 56.9566 165.555 57.3818C166.511 57.7699 167.218 59.0663 167.352 60.4642C167.475 61.8232 167.143 63.1845 166.407 64.3347Z" fill="#EB8D00"/>
<path d="M172.289 84.0857C169.401 82.3115 166.512 80.5372 163.624 78.7629L163.673 78.637C161.877 79.3194 161.131 82.5042 161.428 85.1087C161.725 87.7132 162.731 90.0414 163.24 92.5791C163.925 96.052 163.666 99.6445 162.49 102.984C166.288 98.7322 169.65 94.1114 172.524 89.1906C172.926 88.5705 173.232 87.8937 173.432 87.1829C173.644 86.4255 173.568 85.6166 173.22 84.9112C172.983 84.5632 172.663 84.2795 172.289 84.0857Z" fill="#EB8D00"/>
<path d="M160.889 51.8066C160.55 52.5332 160.498 53.3605 160.743 54.1238C161.028 54.7388 161.545 55.2165 162.181 55.4529L163.777 56.2422C164.308 56.5048 164.881 56.7699 165.422 56.5539C166.075 56.2934 166.527 55.2723 166.41 54.3244C166.286 53.3156 165.648 52.6218 165.059 52.0309C164.234 51.204 163.409 50.3772 162.584 49.5503L162.119 50.1183C161.617 50.6076 161.201 51.1785 160.889 51.8066Z" fill="#EB8D00"/>
<path d="M217.073 62.5901C217.791 62.7588 218.509 62.9275 219.227 63.0961C219.102 65.5154 217.9 67.7545 216.288 68.5655C215.616 68.9029 214.868 69.0277 214.312 69.6585C213.809 70.2315 213.554 71.1234 213.32 71.9761C212.91 73.4642 212.5 74.9522 212.09 76.4403C211.65 78.0439 211.085 79.8255 209.941 80.4031C208.959 80.8999 207.836 80.2922 207.08 79.2732C206.325 78.2542 205.864 76.884 205.417 75.5484C205.445 77.0042 204.767 78.4322 203.805 78.9382C202.842 79.4442 201.67 78.9867 201.026 77.8568C200.563 77.0457 200.37 75.9759 199.916 75.1533C199.462 74.3307 198.51 73.8593 198.015 74.6311C197.688 75.1441 197.73 75.9297 197.568 76.5813C197.486 77.0139 197.271 77.4104 196.953 77.7156C196.635 78.0208 196.23 78.2196 195.793 78.2843C195.392 78.2751 194.997 78.1845 194.632 78.0181C194.266 77.8516 193.939 77.6128 193.669 77.3161C192.251 75.8686 191.328 74.0109 191.031 72.0085C190.83 71.0484 190.856 70.0549 191.105 69.1062C191.39 68.2074 192.078 67.5142 192.761 67.6852C193.211 66.7378 192.324 65.4808 191.525 65.5917C190.723 65.7026 190.095 66.5599 189.438 67.2184C188.782 67.877 187.865 68.3553 187.205 67.7013C187.22 67.9405 187.138 68.1758 186.979 68.3553C186.82 68.5349 186.596 68.644 186.356 68.6587C186.333 68.6602 186.309 68.6607 186.285 68.6603C185.846 68.5346 185.438 68.319 185.088 68.0272C183.575 67.0867 181.655 67.7106 180.58 69.4898C181.252 66.6384 182.236 63.3665 184.3 62.6964C185.143 62.4214 186.063 62.6479 186.86 62.1718C188.27 61.3285 188.555 58.142 187.337 56.8273C187.492 58.0704 187.462 59.5215 186.804 60.3719C186.146 61.2222 184.766 60.6676 184.849 59.4106C184.83 59.5874 184.756 59.7538 184.637 59.8858C184.518 60.0179 184.359 60.1089 184.185 60.1459C184.011 60.1828 183.829 60.1637 183.666 60.0914C183.504 60.0191 183.368 59.8973 183.279 59.7434C182.841 59.0779 182.878 57.9896 183.188 57.1947C183.508 56.4748 183.967 55.8247 184.539 55.2815C185.639 54.1053 186.755 52.9153 188.029 52.1759C189.306 51.4365 190.779 51.1869 192.057 51.9217C192.731 52.3099 193.324 52.9569 194.012 53.2989C194.174 53.3989 194.354 53.4663 194.541 53.497C194.729 53.5277 194.921 53.5213 195.106 53.478C195.292 53.4347 195.467 53.3555 195.621 53.2448C195.776 53.1341 195.907 52.9941 196.007 52.8329C196.015 52.8204 196.022 52.8078 196.03 52.7951C196.542 51.8986 196.301 50.5676 196.491 49.447C196.831 47.4667 198.816 46.5402 199.916 47.848C199.094 47.6377 198.244 48.6082 198.142 49.7844C198.038 50.9605 198.633 52.1482 199.43 52.504C200.769 53.0955 202.08 51.6074 203.092 50.2303C204.148 48.7884 205.206 47.3474 206.265 45.907C206.434 45.6618 206.624 45.4314 206.833 45.2184C207.164 44.8958 207.607 44.7111 208.07 44.7017C208.533 44.6922 208.983 44.8588 209.327 45.1676C210.397 46.0387 210.9 47.8249 211.778 49.0542C213.052 50.8403 214.958 51.2747 216.732 51.6213C218.055 51.8778 219.378 52.1358 220.702 52.3954C221.585 54.0335 222.355 55.7297 223.007 57.472C220.579 58.5766 218.519 60.3529 217.073 62.5901Z" fill="#EB8D00"/>
<path d="M221.349 90.3923C220.356 92.4024 219.202 94.3289 217.897 96.1528C217.063 95.7969 216.167 96.4323 215.387 97.0285C214.571 97.6524 213.591 98.2601 212.755 97.6917C211.901 97.1094 211.625 95.4804 211.896 94.1887C212.207 92.9971 212.752 91.8788 213.499 90.8983C214.194 89.8631 214.937 88.7886 215.903 88.3865C216.871 87.9845 218.115 88.5529 218.398 89.9255L219.083 89.9023C218.699 89.3755 218.9 88.2849 219.417 88.0931C220.012 87.869 220.529 88.6846 220.881 89.4056C221.038 89.7314 221.198 90.0595 221.349 90.3923Z" fill="#EB8D00"/>
<path d="M195.09 80.6321C193.617 80.7245 192.449 78.9147 191.674 77.1343C190.898 75.3538 190.19 73.3178 188.86 72.4115C188.101 71.8937 187.234 71.8227 186.41 71.5717C185.943 71.4539 185.51 71.2267 185.149 70.9089C184.787 70.5911 184.506 70.1918 184.33 69.7442L183.395 69.3675C182.087 70.0196 180.89 70.8714 179.846 71.8921C178.653 73.1565 177.909 74.7772 177.731 76.5045C177.552 78.3712 178.212 80.4526 179.444 81.1538C180.417 81.7079 181.551 81.3586 182.537 81.8659C183.769 82.4996 184.501 84.3405 184.777 86.1582C185.054 87.9759 184.984 89.8649 185.182 91.7032C185.38 93.5416 185.926 95.4544 187.056 96.3965C188.47 97.5753 190.545 96.5957 191.18 94.4497C191.491 93.3971 191.48 92.2093 191.713 91.1166C192.123 89.1924 193.229 87.7647 194.106 86.1863C194.983 84.6078 195.674 82.464 195.09 80.6321Z" fill="#EB8D00"/>
<path d="M180.528 61.7235C180.666 61.8497 180.794 61.9855 180.912 62.1299C181.034 62.3401 181.097 62.5796 181.092 62.8226C181.088 63.0656 181.018 63.3028 180.888 63.5087C181.066 63.4986 181.239 63.4519 181.398 63.3716C181.556 63.2912 181.696 63.1789 181.809 63.0418C182.078 62.7362 182.315 62.4037 182.515 62.0496C182.61 61.9284 182.677 61.7885 182.713 61.6393C182.749 61.49 182.752 61.3349 182.723 61.1842C182.654 60.986 182.489 60.9014 182.374 60.7524C182.214 60.4609 182.105 60.1445 182.051 59.8166C181.987 59.5092 181.838 59.2258 181.622 58.998C181.405 58.7703 181.129 58.6074 180.825 58.5275L180.899 58.5416C180.773 58.616 180.674 58.7278 180.615 58.8613C180.556 58.9948 180.54 59.1433 180.57 59.286C180.615 59.5744 180.801 59.8138 180.782 60.1079C180.756 60.5307 180.332 60.7292 180.306 61.1521C180.302 61.3643 180.382 61.5696 180.528 61.7235Z" fill="#EB8D00"/>
<path d="M178.003 54.5372L178.01 54.5359C178.055 54.4947 178.097 54.45 178.135 54.4023L178.003 54.5372Z" fill="#EB8D00"/>
<path d="M178.445 56.5222C178.622 56.3672 178.753 56.1668 178.824 55.9426C178.894 55.7185 178.902 55.4793 178.845 55.2513C178.738 54.7704 178.359 54.4471 178.01 54.5359C177.908 54.6385 177.783 54.7136 177.644 54.7543C177.506 54.795 177.359 54.7999 177.218 54.7685C177.002 54.713 176.765 54.5701 176.577 54.7325C176.47 54.8538 176.395 54.9999 176.359 55.1576C176.29 55.37 176.22 55.5824 176.151 55.7948C176.118 55.8708 176.109 55.9552 176.126 56.0362C176.14 56.0687 176.161 56.0973 176.189 56.1191C176.216 56.141 176.249 56.1554 176.284 56.161L177.532 56.5281C177.675 56.594 177.832 56.6276 177.989 56.6266C178.147 56.6256 178.303 56.5899 178.445 56.5222Z" fill="#EB8D00"/>
<path d="M209.863 83.9266C209.671 83.6124 209.478 83.2982 209.286 82.984C209.097 82.6201 208.839 82.2965 208.525 82.0314C208.388 81.9169 208.212 81.8614 208.034 81.8771C207.855 81.8927 207.691 81.9783 207.576 82.115L207.566 82.1272L207.59 82.3067C208.105 82.8576 208.456 83.5409 208.603 84.2797C208.647 84.6008 208.632 84.9332 208.67 85.2557C208.674 85.4052 208.708 85.5525 208.769 85.6891C208.83 85.8257 208.918 85.9489 209.027 86.0517C209.33 86.2536 209.685 85.9559 209.901 85.5927C210.094 85.2944 210.18 84.94 210.146 84.5867C210.098 84.3496 210.002 84.1249 209.863 83.9266Z" fill="#EB8D00"/>
<path d="M212.881 84.3355C212.918 84.0414 212.894 83.7428 212.811 83.4583C212.797 83.0732 212.899 82.6929 213.104 82.3665C213.308 82.0586 213.463 81.7208 213.562 81.3654C213.604 81.2035 213.596 81.0328 213.54 80.8752C213.476 80.7325 213.322 80.6674 213.234 80.7804L213.423 80.9021C213.167 80.8566 212.905 80.8692 212.655 80.9392C212.512 80.9937 212.385 81.0816 212.283 81.1956C212.182 81.3096 212.11 81.4462 212.072 81.594C212.041 81.8245 211.99 82.0518 211.92 82.2735C211.807 82.505 211.588 82.5821 211.451 82.7853C211.357 82.9655 211.31 83.1661 211.313 83.3691C211.317 83.572 211.37 83.771 211.47 83.948C211.643 84.2375 211.917 84.4526 212.24 84.5516C212.471 84.6344 212.775 84.6388 212.881 84.3355Z" fill="#EB8D00"/>
<path d="M218.255 85.9531C218.339 86.17 218.451 86.3751 218.588 86.5628C218.845 86.8213 219.195 86.6624 219.507 86.5996C219.79 86.555 220.08 86.5876 220.347 86.6941C220.613 86.8006 220.845 86.977 221.019 87.2045C220.898 86.6022 220.634 86.0378 220.249 85.5585C219.863 85.0792 219.369 84.6991 218.806 84.4501C218.074 84.1976 217.304 84.0774 216.53 84.0951L216.398 84.1289C216.735 85.1069 217.792 85.085 218.255 85.9531Z" fill="#EB8D00"/>
<path d="M195.493 87.9531L195.495 87.9574L195.534 87.8839L195.493 87.9531Z" fill="#EB8D00"/>
<path d="M194.678 89.5278C194.5 89.8498 194.347 90.1849 194.221 90.5301C194.053 91.0893 193.942 91.6639 193.889 92.2452C193.848 92.5758 193.835 92.9979 194.042 93.159C194.102 93.1985 194.174 93.2149 194.245 93.2053C194.316 93.1957 194.381 93.1607 194.428 93.1068C194.543 92.9851 194.637 92.8452 194.707 92.6927C195.115 91.9917 195.432 91.2417 195.65 90.4608C195.877 89.6324 195.823 88.7521 195.495 87.9578C195.223 88.4811 194.95 89.0045 194.678 89.5278Z" fill="#EB8D00"/>
<path d="M186.813 47.5853C186.942 47.7116 187.106 47.7973 187.284 47.8319C187.462 47.8665 187.646 47.8485 187.813 47.7801C188.16 47.6287 188.479 47.4189 188.754 47.1599C188.983 46.9913 189.177 46.7805 189.325 46.5389C189.407 46.3946 189.459 46.2355 189.479 46.0709C189.499 45.9063 189.487 45.7393 189.442 45.5796C189.378 45.4266 189.276 45.2924 189.146 45.1896C189.016 45.0868 188.861 45.0188 188.697 44.9921C188.235 44.8554 187.773 44.7188 187.311 44.5821L187.646 44.2817C187.302 44.0976 186.921 44.4392 186.707 44.8622C186.569 45.1383 186.473 45.4333 186.422 45.7376C186.348 46.0554 186.346 46.3854 186.413 46.7045C186.481 47.0235 186.617 47.3241 186.813 47.5853Z" fill="#EB8D00"/>
<path d="M194.968 44.8541C195.098 44.9972 195.278 45.0856 195.472 45.1013C195.665 45.117 195.857 45.0588 196.008 44.9385C196.139 44.8406 196.247 44.7165 196.327 44.5741C196.406 44.4317 196.454 44.2742 196.468 44.1119C196.501 43.7494 196.321 43.3465 196.065 43.3152L196.124 42.9758C195.629 42.8868 195.021 42.869 194.756 43.4678C194.667 43.6972 194.639 43.9459 194.677 44.1892C194.714 44.4325 194.814 44.6617 194.968 44.8541Z" fill="#EB8D00"/>
<path d="M161.364 69.2677C163.067 69.2677 164.448 67.421 164.448 65.1429C164.448 62.8649 163.067 61.0181 161.364 61.0181C159.662 61.0181 158.281 62.8649 158.281 65.1429C158.281 67.421 159.662 69.2677 161.364 69.2677Z" fill="#E6E6E6"/>
<path d="M217.712 120.344C219.184 119.953 220.156 118.808 219.884 117.786C219.611 116.764 218.197 116.253 216.724 116.644C215.252 117.036 214.28 118.181 214.553 119.202C214.826 120.224 216.24 120.735 217.712 120.344Z" fill="#E6E6E6"/>
<path d="M199.682 120.677C201.154 120.285 202.127 119.14 201.854 118.119C201.581 117.097 200.167 116.586 198.695 116.977C197.223 117.368 196.25 118.513 196.523 119.535C196.796 120.557 198.21 121.068 199.682 120.677Z" fill="#E6E6E6"/>
<path d="M220.915 105.379C222.387 104.988 223.36 103.842 223.087 102.821C222.814 101.799 221.4 101.288 219.928 101.679C218.456 102.07 217.483 103.216 217.756 104.237C218.029 105.259 219.443 105.77 220.915 105.379Z" fill="#E6E6E6"/>
<path d="M226.233 99.0173C226.898 98.9351 227.341 98.0958 227.222 97.1426C227.104 96.1895 226.469 95.4834 225.804 95.5656C225.14 95.6478 224.697 96.4872 224.815 97.4403C224.934 98.3935 225.569 99.0995 226.233 99.0173Z" fill="#E6E6E6"/>
<path d="M227.579 87.727C228.244 87.6448 228.687 86.8054 228.568 85.8523C228.45 84.8991 227.815 84.1931 227.15 84.2753C226.486 84.3575 226.043 85.1968 226.162 86.15C226.28 87.1032 226.915 87.8092 227.579 87.727Z" fill="#E6E6E6"/>
<path d="M209.404 109.431C210.069 109.349 210.512 108.51 210.393 107.557C210.275 106.603 209.64 105.897 208.975 105.98C208.311 106.062 207.868 106.901 207.986 107.854C208.105 108.807 208.74 109.513 209.404 109.431Z" fill="#E6E6E6"/>
<path d="M218.52 112.723C219.185 112.641 219.628 111.801 219.509 110.848C219.391 109.895 218.756 109.189 218.091 109.271C217.427 109.353 216.984 110.193 217.102 111.146C217.221 112.099 217.856 112.805 218.52 112.723Z" fill="#E6E6E6"/>
<path d="M207.452 122.046C208.116 121.964 208.559 121.124 208.441 120.171C208.322 119.218 207.688 118.512 207.023 118.594C206.358 118.676 205.915 119.516 206.034 120.469C206.152 121.422 206.787 122.128 207.452 122.046Z" fill="#E6E6E6"/>
<path d="M128.089 105.239C129.561 104.848 130.534 103.702 130.261 102.681C129.988 101.659 128.574 101.148 127.102 101.539C125.63 101.93 124.657 103.076 124.93 104.097C125.203 105.119 126.617 105.63 128.089 105.239Z" fill="#E6E6E6"/>
<path d="M110.059 105.572C111.531 105.181 112.503 104.036 112.23 103.014C111.958 101.993 110.543 101.481 109.071 101.872C107.599 102.264 106.627 103.409 106.899 104.43C107.172 105.452 108.587 105.963 110.059 105.572Z" fill="#E6E6E6"/>
<path d="M131.293 90.2731C132.765 89.882 133.738 88.7368 133.465 87.7152C133.192 86.6936 131.778 86.1825 130.306 86.5736C128.833 86.9647 127.861 88.1099 128.134 89.1315C128.407 90.1531 129.821 90.6642 131.293 90.2731Z" fill="#E6E6E6"/>
<path d="M136.61 83.9121C137.275 83.8299 137.718 82.9906 137.599 82.0374C137.481 81.0842 136.846 80.3782 136.182 80.4604C135.517 80.5426 135.074 81.3819 135.193 82.3351C135.311 83.2883 135.946 83.9943 136.61 83.9121Z" fill="#E6E6E6"/>
<path d="M137.957 72.6218C138.621 72.5396 139.064 71.7002 138.946 70.7471C138.827 69.7939 138.192 69.0878 137.528 69.1701C136.863 69.2523 136.42 70.0916 136.539 71.0448C136.657 71.9979 137.292 72.704 137.957 72.6218Z" fill="#E6E6E6"/>
<path d="M119.782 94.3261C120.446 94.2438 120.889 93.4045 120.771 92.4513C120.652 91.4982 120.017 90.7921 119.353 90.8743C118.688 90.9565 118.245 91.7959 118.364 92.7491C118.482 93.7022 119.117 94.4083 119.782 94.3261Z" fill="#E6E6E6"/>
<path d="M128.897 97.6176C129.562 97.5353 130.005 96.696 129.886 95.7428C129.768 94.7897 129.133 94.0836 128.468 94.1658C127.804 94.2481 127.361 95.0874 127.479 96.0405C127.598 96.9937 128.233 97.6998 128.897 97.6176Z" fill="#E6E6E6"/>
<path d="M117.829 106.941C118.494 106.858 118.937 106.019 118.818 105.066C118.7 104.113 118.065 103.407 117.4 103.489C116.735 103.571 116.293 104.41 116.411 105.364C116.53 106.317 117.164 107.023 117.829 106.941Z" fill="#E6E6E6"/>
<path d="M237.633 36.0752C239.106 35.6841 240.078 34.5389 239.805 33.5173C239.532 32.4957 238.118 31.9846 236.646 32.3757C235.174 32.7668 234.202 33.912 234.474 34.9336C234.747 35.9552 236.161 36.4663 237.633 36.0752Z" fill="#E6E6E6"/>
<path d="M219.603 36.4085C221.075 36.0174 222.047 34.8722 221.775 33.8506C221.502 32.829 220.087 32.3179 218.615 32.709C217.143 33.1001 216.171 34.2453 216.444 35.2669C216.716 36.2884 218.131 36.7996 219.603 36.4085Z" fill="#E6E6E6"/>
<path d="M240.837 21.1092C242.309 20.7181 243.281 19.5728 243.009 18.5512C242.736 17.5297 241.322 17.0185 239.85 17.4096C238.377 17.8007 237.405 18.946 237.678 19.9676C237.951 20.9891 239.365 21.5003 240.837 21.1092Z" fill="#E6E6E6"/>
<path d="M246.155 14.7486C246.819 14.6664 247.262 13.8271 247.144 12.8739C247.025 11.9207 246.39 11.2147 245.726 11.2969C245.061 11.3791 244.618 12.2184 244.737 13.1716C244.855 14.1248 245.49 14.8308 246.155 14.7486Z" fill="#E6E6E6"/>
<path d="M247.501 3.4582C248.166 3.37599 248.608 2.53665 248.49 1.58348C248.371 0.630316 247.737 -0.0757321 247.072 0.00647828C246.407 0.0886886 245.964 0.928025 246.083 1.88119C246.201 2.83436 246.836 3.54041 247.501 3.4582Z" fill="#E6E6E6"/>
<path d="M229.326 25.1625C229.99 25.0803 230.433 24.2409 230.315 23.2878C230.196 22.3346 229.562 21.6286 228.897 21.7108C228.232 21.793 227.789 22.6323 227.908 23.5855C228.026 24.5386 228.661 25.2447 229.326 25.1625Z" fill="#E6E6E6"/>
<path d="M238.442 28.454C239.106 28.3718 239.549 27.5325 239.431 26.5793C239.312 25.6262 238.677 24.9201 238.013 25.0023C237.348 25.0845 236.905 25.9239 237.024 26.877C237.142 27.8302 237.777 28.5363 238.442 28.454Z" fill="#E6E6E6"/>
<path d="M227.373 37.777C228.038 37.6948 228.481 36.8554 228.362 35.9023C228.244 34.9491 227.609 34.2431 226.944 34.3253C226.28 34.4075 225.837 35.2468 225.955 36.2C226.074 37.1531 226.709 37.8592 227.373 37.777Z" fill="#E6E6E6"/>
<path d="M122.672 107.798C119.722 107.798 117.804 107.066 116.955 105.613C115.281 102.746 118.085 97.7161 125.287 90.6627L125.893 91.2776C119.202 97.8297 116.293 102.767 117.701 105.179C118.593 106.705 121.245 107.252 125.374 106.76C129.472 106.272 134.904 104.817 141.517 102.436C155.133 97.5338 172.215 89.2651 189.617 79.1527C207.018 69.0406 222.655 58.296 233.646 48.8985C235.757 47.0932 237.673 45.3564 239.341 43.7369C241.53 41.6627 243.549 39.4174 245.38 37.0224C247.845 33.683 248.677 31.1112 247.786 29.5851C246.298 27.0361 240.045 27.2758 230.179 30.2609L229.928 29.4363C240.513 26.2341 246.773 26.138 248.533 29.1514C249.626 31.0237 248.799 33.8438 246.075 37.5335C244.217 39.9664 242.166 42.2472 239.943 44.3542C238.263 45.9865 236.333 47.7355 234.208 49.5528C223.178 58.9832 207.497 69.7598 190.052 79.8971C172.606 90.035 155.474 98.3274 141.811 103.247C135.135 105.65 129.64 107.12 125.476 107.615C124.546 107.731 123.609 107.792 122.672 107.798Z" fill="#3F3D56"/>
</g>
<defs>
<clipPath id="clip0_180_2023">
<rect width="249" height="196" fill="white"/>
</clipPath>
</defs>
</svg>
