<svg width="85" height="84" viewBox="0 0 85 84" fill="none" xmlns="http://www.w3.org/2000/svg">
<path d="M79.1975 32.5575C77.7838 31.08 76.3213 29.5575 75.77 28.2188C75.26 26.9925 75.23 24.96 75.2 22.9912C75.1437 19.3312 75.0837 15.1838 72.2 12.3C69.3162 9.41625 65.1688 9.35625 61.5088 9.3C59.54 9.27 57.5075 9.24 56.2812 8.73C54.9463 8.17875 53.42 6.71625 51.9425 5.3025C49.355 2.81625 46.415 0 42.5 0C38.585 0 35.6488 2.81625 33.0575 5.3025C31.58 6.71625 30.0575 8.17875 28.7188 8.73C27.5 9.24 25.46 9.27 23.4912 9.3C19.8312 9.35625 15.6838 9.41625 12.8 12.3C9.91625 15.1838 9.875 19.3312 9.8 22.9912C9.77 24.96 9.74 26.9925 9.23 28.2188C8.67875 29.5537 7.21625 31.08 5.8025 32.5575C3.31625 35.145 0.5 38.085 0.5 42C0.5 45.915 3.31625 48.8512 5.8025 51.4425C7.21625 52.92 8.67875 54.4425 9.23 55.7812C9.74 57.0075 9.77 59.04 9.8 61.0088C9.85625 64.6688 9.91625 68.8162 12.8 71.7C15.6838 74.5837 19.8312 74.6437 23.4912 74.7C25.46 74.73 27.4925 74.76 28.7188 75.27C30.0537 75.8213 31.58 77.2838 33.0575 78.6975C35.645 81.1838 38.585 84 42.5 84C46.415 84 49.3512 81.1838 51.9425 78.6975C53.42 77.2838 54.9425 75.8213 56.2812 75.27C57.5075 74.76 59.54 74.73 61.5088 74.7C65.1688 74.6437 69.3162 74.5837 72.2 71.7C75.0837 68.8162 75.1437 64.6688 75.2 61.0088C75.23 59.04 75.26 57.0075 75.77 55.7812C76.3213 54.4463 77.7838 52.92 79.1975 51.4425C81.6838 48.855 84.5 45.915 84.5 42C84.5 38.085 81.6838 35.1488 79.1975 32.5575ZM59.6225 35.1225L38.6225 56.1225C38.3439 56.4014 38.013 56.6227 37.6488 56.7737C37.2846 56.9247 36.8942 57.0024 36.5 57.0024C36.1058 57.0024 35.7154 56.9247 35.3512 56.7737C34.987 56.6227 34.6561 56.4014 34.3775 56.1225L25.3775 47.1225C24.8146 46.5596 24.4983 45.7961 24.4983 45C24.4983 44.2039 24.8146 43.4404 25.3775 42.8775C25.9404 42.3146 26.7039 41.9983 27.5 41.9983C28.2961 41.9983 29.0596 42.3146 29.6225 42.8775L36.5 49.7588L55.3775 30.8775C55.6562 30.5988 55.9871 30.3777 56.3513 30.2268C56.7155 30.076 57.1058 29.9983 57.5 29.9983C57.8942 29.9983 58.2845 30.076 58.6487 30.2268C59.0129 30.3777 59.3438 30.5988 59.6225 30.8775C59.9012 31.1562 60.1223 31.4871 60.2732 31.8513C60.424 32.2155 60.5017 32.6058 60.5017 33C60.5017 33.3942 60.424 33.7845 60.2732 34.1487C60.1223 34.5129 59.9012 34.8438 59.6225 35.1225Z" fill="url(#paint0_radial_38_1495)"/>
<defs>
<radialGradient id="paint0_radial_38_1495" cx="0" cy="0" r="1" gradientUnits="userSpaceOnUse" gradientTransform="translate(42.5 42) rotate(90) scale(42)">
<stop stop-color="#3EB1C8" stop-opacity="0.536458"/>
<stop offset="0.963542" stop-color="#3EB1C8"/>
<stop offset="1" stop-color="#3EB1C8" stop-opacity="0"/>
</radialGradient>
</defs>
</svg>
